<?xml version="1.0" encoding="utf-8" ?><svg xmlns="http://www.w3.org/2000/svg" xmlns:xlink="http://www.w3.org/1999/xlink" width="229" height="225" viewBox="0 0 229 225"><defs><linearGradient id="gradient_0" gradientUnits="userSpaceOnUse" x1="109.25149" y1="26.580561" x2="111.21066" y2="199.93127"><stop offset="0" stop-color="#4A9B29"/><stop offset="1" stop-color="#97DD7A"/></linearGradient></defs><path fill="url(#gradient_0)" d="M92.0375 29.314C107.847 24.2761 124.046 22.6089 140.362 26.2395C154.891 28.7875 168.751 36.4277 179.817 45.996C181.921 47.8151 184.549 49.9344 186.146 52.1903C186.432 52.5939 186.608 53.0113 186.724 53.4907C186.439 54.1885 185.763 54.4335 185.116 54.7945C182.661 56.1633 180.038 57.3049 177.528 58.5779L163.592 65.8082C157.603 68.9163 150.816 72.9253 144.725 75.5133C144.388 75.6569 144.048 75.7955 143.707 75.929C140.895 74.5588 138.114 73.1714 135.143 72.1721C126.511 69.2684 116.43 69.1949 107.809 72.1782C97.0401 75.9673 88.2254 83.8921 83.3158 94.1985C78.5136 104.378 77.9636 116.05 81.7874 126.636C85.6365 137.55 93.6615 145.833 104.023 150.781C113.774 155.438 125.793 155.947 135.953 152.33C138.683 151.358 141.26 149.816 144.028 148.988C150.782 151.763 157.314 155.658 163.817 159C171.565 162.982 180.004 166.846 187.414 171.372C171.708 188.75 149.741 199.176 126.347 200.357C103.697 201.49 80.1723 193.461 63.3395 178.234C45.7596 162.402 35.1693 140.25 33.8876 116.626C32.7488 93.6594 40.0451 71.3225 55.6167 54.1699C66.2992 42.4028 77.4381 35.361 92.0375 29.314Z"/><path fill="#4B9A28" d="M92.0375 29.314C107.847 24.2761 124.046 22.6089 140.362 26.2395C139.681 26.2692 138.754 26.1895 138.236 26.6773C138.319 27.254 138.549 27.6259 138.853 28.105C138.622 28.6153 138.458 28.6359 137.939 28.8284C137.543 28.9752 137.146 29.0151 136.729 29.0488C136.008 28.5282 135.36 27.7484 134.469 27.8924C133.271 28.0861 132.08 28.5798 130.87 28.6525C127.595 28.8495 124.094 28.0246 120.762 28.0615C118.827 28.083 116.923 28.457 114.995 28.5584C110.218 28.8098 105.579 28.9434 100.811 29.5115C99.6683 29.6476 94.1384 31.0901 93.7594 30.9086C93.8829 30.5618 93.9974 30.2288 94.0704 29.8676C93.394 29.6165 92.7459 29.4493 92.0375 29.314Z"/><defs><linearGradient id="gradient_1" gradientUnits="userSpaceOnUse" x1="87.865562" y1="135.09117" x2="202.82079" y2="134.39529"><stop offset="0" stop-color="#66B247"/><stop offset="1" stop-color="#98DE7D"/></linearGradient></defs><path fill="url(#gradient_1)" d="M199.768 55.6299L199.98 55.1789C200.464 56.3797 201.793 58.3757 201.261 59.5374C200.412 61.3928 198.779 61.9834 198.798 64.2119C193.468 67.0691 188.049 69.7022 182.682 72.4783C175.443 76.312 168.179 80.0967 160.889 83.8321L149.084 89.8359C147.023 90.8861 144.962 92.1075 142.81 92.9536C139.837 91.3539 137.107 89.3428 134.138 87.7563C127.886 84.4877 120.607 83.7811 113.843 85.786C106.647 87.9177 100.61 92.854 97.0925 99.4838C93.703 105.786 93.1371 113.442 95.2095 120.265C97.256 127.002 102.022 133.195 108.272 136.534C115.074 140.168 122.341 141.046 129.707 138.777C135.336 137.043 138.456 133.774 142.997 132.041C146.467 133.265 198.459 160.259 198.762 160.586C200.105 161.191 201.431 161.835 202.736 162.518L203.089 162.795C205.532 163.962 208.097 165.131 210.366 166.616C207.566 170.728 204.025 174.481 200.883 178.348C183.621 198.292 158.905 212.695 132.24 214.618C131.33 214.684 130.366 214.804 129.457 214.768C127.723 213.978 124.865 214.363 122.957 214.377C123.99 214.02 124.866 213.876 125.96 213.944C127.068 212.96 128.573 211.764 129.906 211.116C130.429 210.862 131.077 210.894 131.558 210.588C131.618 210.549 131.675 210.508 131.734 210.468L131.626 210.605C131.406 210.275 128.496 209.722 127.744 209.307C127.813 208.614 128.334 208.412 128.859 207.98C130.756 207.332 134.685 207.278 136.843 206.996C140.03 206.56 143.186 205.927 146.294 205.099C160.625 201.407 173.855 194.316 184.864 184.426C186.913 182.596 188.904 180.703 190.836 178.751C191.783 177.79 192.621 176.678 193.645 175.804L193.758 175.709C194.994 173.801 196.817 171.849 198.416 170.235C198.601 169.657 199.213 169.541 199.345 168.856C189.121 164.405 179.268 158.78 169.347 153.676C163.659 150.782 158 147.828 152.374 144.814C149.343 143.184 146.231 141.664 143.401 139.693C137.855 143.815 130.851 146.647 123.913 146.895C114.165 147.244 105.153 144.418 97.9501 137.668C91.139 131.287 87.536 122.416 87.2523 113.132C86.9682 103.834 90.1181 95.2628 96.528 88.4944C102.906 81.6968 111.762 77.7668 121.082 77.598C128.49 77.4311 137.94 79.9718 143.427 85.2197C147.919 82.1285 153.268 79.8234 158.108 77.2922L190.196 60.6876C192.522 59.4735 198.199 57.1734 199.768 55.6299Z"/><path fill="#96DE7C" d="M203.089 162.795C205.532 163.962 208.097 165.131 210.366 166.616C207.566 170.728 204.025 174.481 200.883 178.348C200.552 178.329 200.089 178.296 199.79 178.155C199.591 178.062 199.262 177.797 199.205 177.579C198.872 176.319 199.933 175.051 200.553 174.049C201.638 172.293 200.93 171.635 200.508 169.779C199.908 167.142 201.752 167.869 202.676 166.075C202.999 165.448 202.94 164.146 202.691 163.491C202.674 163.446 202.653 163.403 202.635 163.358L203.089 162.795Z"/><path fill="#96DE7C" d="M193.758 175.709C194.994 173.801 196.817 171.849 198.416 170.235C198.125 171.387 197.934 172.596 197.074 173.468C196.257 174.298 194.863 175.31 193.758 175.709Z"/><path fill="#96DE7C" d="M198.762 160.586C200.105 161.191 201.431 161.835 202.736 162.518L201.991 162.985C201.432 162.997 200.766 162.812 200.286 162.524C199.503 162.055 198.979 161.472 198.762 160.586Z"/><defs><linearGradient id="gradient_2" gradientUnits="userSpaceOnUse" x1="19.489172" y1="112.32849" x2="131.44943" y2="112.10488"><stop offset="0" stop-color="#4A9A29"/><stop offset="1" stop-color="#79C25D"/></linearGradient></defs><path fill="url(#gradient_2)" d="M129.457 214.768C125.535 215.632 119.151 215.146 115.074 214.848C88.2542 212.889 62.6383 201.045 44.9548 180.547C26.0557 158.64 17.0712 131.984 19.2276 103.046C21.1405 77.3765 34.4985 51.7693 53.9804 35.032C76.2183 15.9271 102.682 7.94369 131.737 10.1498L130.342 10.4072L131.094 10.648L130.096 11.0408L130.06 11.3404C130.719 11.8536 131.193 12.0555 131.451 12.8627C130.376 14.4945 126.48 14.8424 124.624 15.2239C123.478 15.4596 122.305 15.7437 121.139 15.8534C119.48 16.0093 115.704 15.4601 114.466 16.4447C115.056 16.816 115.655 16.7381 116.345 16.778C112.408 17.2479 108.506 17.3892 104.596 18.1369C81.5568 22.334 60.8412 34.7937 46.3354 53.1782C29.8822 74.1037 23.4845 98.4206 26.656 124.767C29.7997 149.77 42.7953 172.483 62.7573 187.864C81.5067 202.588 105.087 209.764 128.859 207.98C128.334 208.412 127.813 208.614 127.744 209.307C128.496 209.722 131.406 210.275 131.626 210.605L131.734 210.468C131.675 210.508 131.618 210.549 131.558 210.588C131.077 210.894 130.429 210.862 129.906 211.116C128.573 211.764 127.068 212.96 125.96 213.944C124.866 213.876 123.99 214.02 122.957 214.377C124.865 214.363 127.723 213.978 129.457 214.768Z"/><defs><linearGradient id="gradient_3" gradientUnits="userSpaceOnUse" x1="120.60511" y1="26.851358" x2="211.25108" y2="46.406387"><stop offset="0" stop-color="#78C058"/><stop offset="1" stop-color="#9AE080"/></linearGradient></defs><path fill="url(#gradient_3)" d="M131.737 10.1498C159.655 12.9279 184.099 26.2978 201.86 47.9883C203.396 49.8647 209.263 56.2549 209.548 58.0858C208.318 60.1117 201.057 63.102 198.798 64.2119C198.779 61.9834 200.412 61.3928 201.261 59.5374C201.793 58.3757 200.464 56.3797 199.98 55.1789L199.768 55.6299C197.571 54.5341 190.22 45.3251 187.729 42.8948C174.35 29.8441 153.841 20.1186 135.343 17.5313C129.052 16.6514 122.681 16.6837 116.345 16.778C115.655 16.7381 115.056 16.816 114.466 16.4447C115.704 15.4601 119.48 16.0093 121.139 15.8534C122.305 15.7437 123.478 15.4596 124.624 15.2239C126.48 14.8424 130.376 14.4945 131.451 12.8627C131.193 12.0555 130.719 11.8536 130.06 11.3404L130.096 11.0408L131.094 10.648L130.342 10.4072L131.737 10.1498Z"/><path fill="#D8DBDB" fill-opacity="0.019607844" d="M189.076 150.879L189.371 151.149C189.475 151.835 189.701 152.592 189.344 153.229L188.899 153.081C188.905 152.335 188.979 151.618 189.076 150.879Z"/></svg>